<svg xmlns="http://www.w3.org/2000/svg" viewBox="0 0 290.59 80"><defs><style>.a{fill:#fff;}</style></defs><title>recap-logo-white</title><path class="a" d="M288.53,16.17a14.08,14.08,0,0,0-2.29-7.7l4.35-4.36L286.48,0l-4.36,4.36a14,14,0,0,0-15.4,0L262.36,0l-4.11,4.11,4.36,4.36a14,14,0,0,0,0,15.4l-4.36,4.36,4.11,4.11L266.72,28a14.09,14.09,0,0,0,15.4,0l4.36,4.35,4.11-4.11-4.35-4.36A14.08,14.08,0,0,0,288.53,16.17Zm-14.11,8.4a8.4,8.4,0,1,1,8.4-8.4A8.4,8.4,0,0,1,274.42,24.57Z"/><path class="a" d="M0,17.78H7.55l.89,4h.45c1.51-1.69,2.93-4,8.44-4h8v8H18.22C12,25.78,8.89,28.89,8.89,35V62.22H0Z"/><path class="a" d="M70.22,49.34a21.07,21.07,0,0,1-20,13.77C37.33,63.11,28,53.78,28,40s9.33-23.11,22.22-23.11c12,0,21.33,9.34,21.33,21.78a25.26,25.26,0,0,1-.27,3.2l-.17,1.24H36.89c1,7.56,6.22,12.45,13.33,12.45a11.66,11.66,0,0,0,10.66-6.22ZM63.11,36.45c-1-7.11-5.78-12-12.89-12-7.56,0-12,4.89-13.33,12Z"/><path class="a" d="M80.44,17.78H90.66V28H80.44Zm0,34.22H90.66V62.22H80.44Z"/><path class="a" d="M142.21,46.67c-1.42,6.67-7.11,16.44-20.44,16.44-12.89,0-22.22-9.33-22.22-23.11s9.33-23.11,22.22-23.11c13.33,0,19,9.87,20.44,16h-8.89c-1.42-4-4.8-8-11.55-8-7.56,0-13.34,5.87-13.34,15.11s5.78,15.11,13.34,15.11a11.54,11.54,0,0,0,11.55-8.44Z"/><path class="a" d="M183.54,57.34h-.44c-.89,1.33-5.34,5.77-13.78,5.77-11.64,0-20.44-8.89-20.44-23.11s8.8-23.11,20.44-23.11c8.62,0,12.26,4.54,13.78,6.23h.44l.89-5.34h8V62.22h-8Zm0-17.34c0-9.24-5.78-15.11-12.89-15.11S157.76,30.76,157.76,40s5.78,15.11,12.89,15.11S183.54,49.25,183.54,40Z"/><path class="a" d="M204,17.78h8l.89,5.34h.45c1.51-1.69,5.15-6.23,13.77-6.23,11.65,0,20.45,8.89,20.45,23.11s-8.8,23.11-20.45,23.11c-8.53,0-12.44-4.44-13.77-6.22h-.45V80H204ZM238.65,40c0-9.24-5.78-15.11-12.89-15.11S212.87,30.76,212.87,40s5.78,15.11,12.89,15.11S238.65,49.25,238.65,40Z"/></svg>